<svg width="140" height="140" fill="none" xmlns="http://www.w3.org/2000/svg"><g clip-path="url(#a)"><path fill="#fff" d="M0 0h140v140H0z"/><g style="mix-blend-mode:multiply" opacity=".3"><path fill="#0061FF" d="M0 140v-30h140v30z"/><path transform="rotate(-90 0 140)" fill="url(#b)" d="M0 140h30v140H0z"/></g><path d="M73.92 37.706a5.098 5.098 0 0 1 5.093-4.9h22.402a5.097 5.097 0 0 1 5.094 4.9L110.475 140H69.953L73.92 37.706Z" fill="url(#c)" style="mix-blend-mode:multiply" opacity=".3"/><g style="mix-blend-mode:multiply" opacity=".3"><path d="M33.152 56.56a5.098 5.098 0 0 1 5.092-4.844h12.043a5.098 5.098 0 0 1 5.094 4.894L58.716 140H29l4.152-83.44Z" fill="url(#d)"/><path d="M33.152 56.56a5.098 5.098 0 0 1 5.092-4.844h12.043a5.098 5.098 0 0 1 5.094 4.894L58.716 140H29l4.152-83.44Z" fill="url(#e)"/><path d="M33.152 56.56a5.098 5.098 0 0 1 5.092-4.844h12.043a5.098 5.098 0 0 1 5.094 4.894L58.716 140H29l4.152-83.44Z" fill="url(#f)"/></g><path d="M50.657 26.751A5.098 5.098 0 0 1 55.743 22h25.322a5.098 5.098 0 0 1 5.097 5.098V140H42.94l7.718-113.249Z" fill="url(#g)" style="mix-blend-mode:multiply" opacity=".3"/></g><defs><linearGradient id="b" x1="30.644" y1="283.165" x2="-26.805" y2="270.854" gradientUnits="userSpaceOnUse"><stop stop-color="#F44238"/><stop offset="1" stop-color="#F44238" stop-opacity="0"/></linearGradient><linearGradient id="c" x1="111.345" y1="142.423" x2="40.332" y2="115.578" gradientUnits="userSpaceOnUse"><stop stop-color="#5684E8"/><stop offset="1" stop-color="#7A005A" stop-opacity=".34"/></linearGradient><linearGradient id="d" x1="43.858" y1="51.716" x2="43.858" y2="140" gradientUnits="userSpaceOnUse"><stop stop-color="#0061FF"/><stop offset="1" stop-color="#3D495C" stop-opacity=".38"/></linearGradient><linearGradient id="e" x1="58.439" y1="53.389" x2="16.66" y2="63.27" gradientUnits="userSpaceOnUse"><stop stop-color="#1E2EED"/><stop offset="1" stop-color="#C21B1B"/></linearGradient><linearGradient id="f" x1="59.354" y1="141.996" x2="5.893" y2="124.001" gradientUnits="userSpaceOnUse"><stop stop-color="#7A005A"/><stop offset="1" stop-color="#F44238" stop-opacity="0"/></linearGradient><linearGradient id="g" x1="87.091" y1="142.667" x2="10.761" y2="114.707" gradientUnits="userSpaceOnUse"><stop stop-color="#F44238"/><stop offset="1" stop-color="#F44238" stop-opacity=".12"/></linearGradient><clipPath id="a"><path fill="#fff" d="M0 0h140v140H0z"/></clipPath></defs></svg>